<svg xmlns="http://www.w3.org/2000/svg" version="1.1">
    <symbol id="burger" viewBox="-4 0 24 24">
        <rect y="8" width="16" height="1.6"></rect>
        <rect y="12" width="16" height="1.6"></rect>
        <rect y="16" width="16" height="1.6"></rect>
    </symbol>
    <symbol id="home" viewBox="0 0 24 24">
        <path d="M10 20v-6h4v6h5v-8h3L12 3 2 12h3v8"></path>
    </symbol>
    <symbol id="trending" viewBox="0 0 24 24">
        <path d="M17.53 11.2c-.23-.3-.5-.56-.76-.82-.65-.6-1.4-1.03-2.03-1.66-1.46-1.46-1.78-3.87-.85-5.72-.9.23-1.75.75-2.45 1.32C8.9 6.4 7.9 10.07 9.1 13.22c.04.1.08.2.08.33 0 .22-.15.42-.35.5-.22.1-.46.04-.64-.12-.06-.05-.1-.1-.15-.17-1.1-1.43-1.28-3.48-.53-5.12C5.87 10 5 12.3 5.12 14.47c.04.5.1 1 .27 1.5.14.6.4 1.2.72 1.73 1.04 1.73 2.87 2.97 4.84 3.22 2.1.27 4.35-.12 5.96-1.6 1.8-1.66 2.45-4.3 1.5-6.6l-.13-.26c-.2-.45-.47-.87-.78-1.25zm-3.1 6.3c-.28.24-.73.5-1.08.6-1.1.38-2.2-.16-2.88-.82 1.2-.28 1.9-1.16 2.1-2.05.17-.8-.14-1.46-.27-2.23-.12-.74-.1-1.37.2-2.06.15.38.35.76.58 1.06.76 1 1.95 1.44 2.2 2.8.04.14.06.28.06.43.03.82-.32 1.72-.92 2.26z"></path>
    </symbol>
    <symbol id="subscriptions" viewBox="0 0 24 24">
        <path d="M18.7 8.7H5.3V7h13.4v1.7zm-1.7-5H7v1.6h10V3.7zm3.3 8.3v6.7c0 1-.7 1.6-1.6 1.6H5.3c-1 0-1.6-.7-1.6-1.6V12c0-1 .7-1.7 1.6-1.7h13.4c1 0 1.6.8 1.6 1.7zm-5 3.3l-5-2.7V18l5-2.7z"></path>
    </symbol>
    <symbol id="library" viewBox="0 0 24 24">
        <path fill="none" d="M0 0h24v24H0z"></path>
        <path d="M4 6H2v14c0 1.1.9 2 2 2h14v-2H4V6zm16-4H8c-1.1 0-2 .9-2 2v12c0 1.1.9 2 2 2h12c1.1 0 2-.9 2-2V4c0-1.1-.9-2-2-2zm-8 12.5v-9l6 4.5-6 4.5z"></path>
    </symbol>
    <symbol id="history" viewBox="0 0 24 24">
        <path d="M11.9 3.75c-4.55 0-8.23 3.7-8.23 8.25H.92l3.57 3.57.04.13 3.7-3.7H5.5c0-3.54 2.87-6.42 6.42-6.42 3.54 0 6.4 2.88 6.4 6.42s-2.86 6.42-6.4 6.42c-1.78 0-3.38-.73-4.54-1.9l-1.3 1.3c1.5 1.5 3.55 2.43 5.83 2.43 4.58 0 8.28-3.7 8.28-8.25 0-4.56-3.7-8.25-8.26-8.25zM11 8.33v4.6l3.92 2.3.66-1.1-3.2-1.9v-3.9H11z"></path>
    </symbol>
    <symbol id="video" viewBox="0 0 24 24">
        <path d="M18.4 5.6v12.8H5.6V5.6h12.8zm0-1.8H5.6a1.8 1.8 0 0 0-1.8 1.8v12.8a1.8 1.8 0 0 0 1.8 1.9h12.8a1.8 1.8 0 0 0 1.9-1.9V5.6a1.8 1.8 0 0 0-1.9-1.8z"></path>
        <path d="M10.2 9v6.5l5-3.2-5-3.2z"></path>
    </symbol>
    <symbol id="watch" viewBox="0 0 24 24">
        <path d="M12 3.67c-4.58 0-8.33 3.75-8.33 8.33s3.75 8.33 8.33 8.33 8.33-3.75 8.33-8.33S16.58 3.67 12 3.67zm3.5 11.83l-4.33-2.67v-5h1.25v4.34l3.75 2.25-.67 1.08z"></path>
    </symbol>
    <symbol id="playlist" viewBox="0 0 24 24">
        <path d="M3.67 8.67h14V11h-14V8.67zm0-4.67h14v2.33h-14V4zm0 9.33H13v2.34H3.67v-2.34zm11.66 0v7l5.84-3.5-5.84-3.5z"></path>
    </symbol>
    <symbol id="premium" viewBox="0 0 24 24">
        <path fill-rule="nonzero" d="M21.78 8s-.2-1.37-.8-1.97c-.75-.8-1.6-.8-2-.85C16.2 4.98 12 5 12 5s-4.18-.02-6.97.18c-.4.05-1.24.05-2 .85-.6.6-.8 1.97-.8 1.97s-.2 1.63-.23 3.23v1.7c.03 1.6.23 3.2.23 3.2s.2 1.4.8 2c.76.8 1.75.76 2.2.85 1.57.15 6.6.18 6.77.18 0 0 4.2 0 7-.2.38-.04 1.23-.04 2-.84.6-.6.8-1.98.8-1.98s.2-1.6.2-3.22v-1.7c-.02-1.6-.22-3.22-.22-3.22zm-11.8 7V9.16l5.35 3.03L9.97 15z"></path>
    </symbol>
    <symbol id="gaming" viewBox="0 0 24 24">
        <path d="M22,13V8l-5-3l-5,3l0,0L7,5L2,8v5l10,6L22,13z M9,11H7v2H6v-2H4v-1h2V8h1v2h2V11z M15,13 c-0.55,0-1-0.45-1-1s0.45-1,1-1s1,0.45,1,1S15.55,13,15,13z M18,11c-0.55,0-1-0.45-1-1s0.45-1,1-1s1,0.45,1,1S18.55,11,18,11z"></path>
    </symbol>
    <symbol id="live" viewBox="0 0 24 24">
        <path d="M16.94 6.91l-1.41 1.45c.9.94 1.46 2.22 1.46 3.64s-.56 2.71-1.46 3.64l1.41 1.45c1.27-1.31 2.05-3.11 2.05-5.09s-.78-3.79-2.05-5.09zM19.77 4l-1.41 1.45C19.98 7.13 21 9.44 21 12.01c0 2.57-1.01 4.88-2.64 6.54l1.4 1.45c2.01-2.04 3.24-4.87 3.24-7.99 0-3.13-1.23-5.96-3.23-8.01zM7.06 6.91c-1.27 1.3-2.05 3.1-2.05 5.09s.78 3.79 2.05 5.09l1.41-1.45c-.9-.94-1.46-2.22-1.46-3.64s.56-2.71 1.46-3.64L7.06 6.91zM5.64 5.45L4.24 4C2.23 6.04 1 8.87 1 11.99c0 3.13 1.23 5.96 3.23 8.01l1.41-1.45C4.02 16.87 3 14.56 3 11.99s1.01-4.88 2.64-6.54z"></path>
        <circle cx="12" cy="12" r="3"></circle>
    </symbol>
    <symbol id="sport" viewBox="0 0 24 24">
        <path d="M6.85 7.76V6.18H1v2.88c0 2.35 1.9 4.26 4.26 4.26h1.59v-1.59H5.4a2.81 2.81 0 01-2.81-2.8V7.75h4.26zm10.3 0V6.18H23v2.88c0 2.35-1.9 4.26-4.26 4.26h-1.59v-1.59h1.45a2.81 2.81 0 002.81-2.8V7.75h-4.26z"/>
        <path d="M12 17.29a6.87 6.87 0 01-6.87-6.87V3h13.74v7.42c0 3.8-3.07 6.87-6.87 6.87z"/>
        <path d="M12 17.29V3h6.87v7.42c0 3.8-3.07 6.87-6.87 6.87zm0 0l4.13 2.38H7.88L12 17.3zm4.13 2.38H7.88v2.38h8.25v-2.38z"/>
    </symbol>
    <symbol id="settings" viewBox="0 0 24 24">
        <path d="M19.43 12.98c.04-.32.07-.64.07-.98s-.03-.66-.07-.98l2.1-1.65c.2-.15.25-.42.13-.64l-2-3.46c-.12-.22-.4-.3-.6-.22l-2.5 1c-.52-.4-1.08-.73-1.7-.98l-.37-2.65c-.06-.24-.27-.42-.5-.42h-4c-.27 0-.48.18-.5.42l-.4 2.65c-.6.25-1.17.6-1.7.98l-2.48-1c-.23-.1-.5 0-.6.22l-2 3.46c-.14.22-.08.5.1.64l2.12 1.65c-.04.32-.07.65-.07.98s.02.66.06.98l-2.1 1.65c-.2.15-.25.42-.13.64l2 3.46c.12.22.4.3.6.22l2.5-1c.52.4 1.08.73 1.7.98l.37 2.65c.04.24.25.42.5.42h4c.25 0 .46-.18.5-.42l.37-2.65c.6-.25 1.17-.6 1.7-.98l2.48 1c.23.1.5 0 .6-.22l2-3.46c.13-.22.08-.5-.1-.64l-2.12-1.65zM12 15.5c-1.93 0-3.5-1.57-3.5-3.5s1.57-3.5 3.5-3.5 3.5 1.57 3.5 3.5-1.57 3.5-3.5 3.5z"></path>
    </symbol>
    <symbol id="flag" viewBox="0 0 24 24">
        <path d="M14.4 6L14 4H5v17h2v-7h5.6l.4 2h7V6z"></path>
    </symbol>
    <symbol id="feedback" viewBox="0 0 24 24">
        <path d="M0 0h24v24H0z" fill="none"></path>
        <path d="M20 2H4c-1.1 0-1.99.9-1.99 2L2 22l4-4h14c1.1 0 2-.9 2-2V4c0-1.1-.9-2-2-2zm-7 12h-2v-2h2v2zm0-4h-2V6h2v4z"></path>
    </symbol>
    <symbol id="like" viewBox="0 0 24 24">
        <path d="M3.75 18.75h3v-9h-3v9zm16.5-8.25c0-.83-.68-1.5-1.5-1.5h-4.73l.7-3.43.03-.24c0-.3-.13-.6-.33-.8l-.8-.78L8.7 8.7c-.3.26-.45.64-.45 1.05v7.5c0 .82.67 1.5 1.5 1.5h6.75c.62 0 1.15-.38 1.38-.9l2.27-5.3c.06-.18.1-.36.1-.55v-1.5z"/>
    </symbol>
    <symbol id="best-news" viewBox="0 0 400 400">
        <path d="M141 84l-3 2-3 1-4 2-2 2h-1a297 297 0 01-18 7l-3-2-4-2-3-2c-2-1-4-1-5-3l-7-3-2-1c-2-1-2-1-3 2-1 4 0 229 1 229 1 2 2 2 75 2 75 0 72 0 73-2l2-1 4-2 3-2 4-2 4-3 4-2 4-2 4-3 3-2 6-2 2-2 3-2 6-3 3-2 5-3 5-3 2-1 6-3 2-1 4-3 5-3 2-1 1-1 1-1v-90a3261 3261 0 00-2-92l-2 1-2 1-3 1-3 2-4 2-4 3-5 3h-1l-1 1-7-1-3-1-4-3-2-1-5-3-3-2-3-1-6-3-2 2-3 2-5 2-4 3-4 2-5 2-2 2c-2 2-2 2-5 0l-3-2h-1l-1-1-3-1-3-2-5-3-4-2-3-2c-3-2-5-2-8 0l-3 2-5 3-3 1-3 2-4 3-5 2-1 1c-1 1-2 1-3-1l-3-2-4-2-6-3-3-1c-1-2-3-3-5-3l-3-2c-2-2-2-2-4-1m159 40l1 1v7l-1 26-1 1H102l-1-1-1-9c-1-25-1-25 1-26l99-1h98l2 2m0 59l1 2v4l-1 6-1 1h-33l-34-1-1-1-1-4v-5c0-1 1-3 3-3l33-1h32l2 2m-1 27c2 2 2 10 1 12s0 2-35 2l-33-1-1-1-1-9c1-4-1-3 35-3a1238 1238 0 0034 0m0 31c3 2 2 10 0 11h-67c-3-3-3-10 1-12 2-1 65 0 66 1" fill="#ebebeb"/>
        <path d="M0 200v200h400V0H0v200M145 85l3 2c2 0 4 1 5 3l3 1 6 3 4 2 3 2c1 2 2 2 3 1l1-1 5-2 4-3 3-2 3-1 5-3 3-2c3-2 5-2 8 0l3 2 4 2 5 3 3 2 3 1 1 1h1l3 2c3 2 3 2 5 0l2-2 5-2 4-2 4-3 5-2 3-2 2-2 6 3 3 1 3 2 5 3 2 1 4 3 3 1 7 1 1-1h1l5-3 4-3 4-2 3-2 3-1 2-1 2-1 2 1v181l-1 1-1 1-2 1-5 3-4 3-2 1a24 24 0 00-8 4l-5 3-5 3-3 2-6 3-3 2-2 2-6 2-3 2-4 3-4 2-4 2-4 3-4 2-3 2-4 2-2 1c-1 2 2 2-73 2-73 0-74 0-75-2-1 0-2-225-1-229 1-3 1-3 3-2l2 1 7 3c1 2 3 2 5 3l3 2 4 2 3 2h2l5-1 1-1h2l2-1 2-1 2-2a297 297 0 0017-9l2 2m-44 38c-2 1-2 1-1 26l1 9 1 1h197l1-1 1-26v-7l-1-1-2-2h-98l-99 1m132 59c-2 0-3 2-3 3v5l1 4 1 1 34 1h33l1-1 1-6v-4l-1-2-2-2h-32l-33 1m63 27l-31 1c-36 0-34-1-35 3l1 9 1 1 33 1c35 0 34 0 35-2s1-10-1-12l-3-1m-63 31c-4 2-4 9-1 12h67c2-1 3-9 0-11-1-1-64-2-66-1" fill="#434343"/>
    </symbol>
    <symbol id="best-y-music" viewBox="0 0 400 400">
        <path d="M0 200v200h400V0H0v200M285 86v18a7743 7743 0 00-1 142l-2 6-3 6-2 3-2 2c-2 0-3 1-4 3l-2 2-7 2c-2 2-13 2-15 0l-6-2-3-3-3-2-2-2-2-3-3-4-1-6-1-11 2-7 2-3 2-2 6-6 2-1v-1l1-1 13-2c8-1 8-1 8-12v-27l-2-1-4 1-3 1-4 3-7 3-1 1-3 3-6 2-3 2-4 3-3 2-5 2-5 3-3 2-2 2-6 2-4 3-3 2-4 2-5 3-2 1-1 1h-1l-4 3-1 38-1 36-2 5-3 5-2 3-1 1-3 3-3 1-4 3-11 1h-9l-2-1-3-2-4-2-3-4-2-2-1-1c-2-2-3-3-3-5l-1-4c-2-5-2-10-1-13l2-7 2-2 2-3 2-3 2-2 3-2 4-2c1-2 1-2 10-2l7-2h1v-49a701 701 0 012-51l5-3 2-2 5-3 4-2 5-2 3-2 4-3 4-2 3-2 4-2 4-3c3 0 4-1 4-2l5-2 3-3 3-1 5-3 3-2 4-2 5-3 4-2 2-2h1a213 213 0 0110-6l2-1 5-3 3-1 6-3 2-2 5-3 3-2 4-2 2-2 6-1 1 2m-31 48l-2 2-6 2-4 3-2 1a8 8 0 01-3 2l-3 1-3 2-4 3-4 2-2 2-6 3-3 1-4 3-3 2-6 3-3 2-5 2-1 1v1h-1l-5 3-4 2c-2 0-3 2-4 4l1 19c2 3 5 2 9-2l3-1 5-3 5-3 2-2 4-2 5-2 3-2 4-2 4-3 4-2 4-2 4-3 3-2 5-3 3-1 6-4 2-1 5-2 1-2 2-2 2-2v-3a18917 18917 0 00-2-16c-2-1-4-1-6 1" fill="#434343"/>
        <path d="M281 84l-3 1-2 2-4 2-3 2-5 3-2 2-6 3-3 1-5 3-2 1-5 3-2 2a213 213 0 00-33 19l-5 2c0 1-1 2-4 2l-4 3-4 2-3 2-4 2-4 3-3 2-5 2-4 2-5 3-2 2-5 3-1 2-1 49v49h-1l-7 2c-9 0-9 0-10 2l-4 2-3 2-2 2-2 3-2 3-2 2-2 7c-1 3-1 8 1 13l1 4c0 2 1 3 3 5l1 1 2 2 3 4 4 2 3 2 2 1h9l11-1 4-3 3-1a81 81 0 014-4l2-3 3-5 2-5 1-36 1-38 4-3h1l1-1 2-1 5-3 4-2 3-2 4-3 6-2 2-2 3-2 5-3 5-2 3-2 4-3 3-2 6-2 3-3 1-1 7-3 4-3 3-1 4-1 2 1v27c0 11 0 11-8 12l-13 2-1 1v1l-2 1-6 6-2 2-2 3-2 7 1 11 1 6 3 4 2 3 2 2 3 2 3 3 6 2c2 2 13 2 15 0l7-2 2-2c1-2 2-3 4-3l2-2 2-3 3-6 2-6v-5a967 967 0 010-66 7743 7743 0 011-89c-1-2-1-2-4-2m-21 49c2 1 2 1 2 4l-1 5 1 7v3l-2 2-2 2-1 2-5 2-2 1-6 4-3 1-5 3-3 2-4 3-4 2-4 2-4 3-4 2-3 2-5 2-4 2-2 2-5 3-5 3-3 1c-4 4-7 5-9 2l-1-19c1-2 2-4 4-4l4-2 5-3h1v-1l1-1 5-2 3-2 6-3 3-2 4-3 3-1 6-3 2-2 4-2 4-3 3-2a13 13 0 004-1l2-2 2-1 4-3 6-2 2-2c2-2 4-2 6-1" fill="#eaeaea"/>
    </symbol>
    <symbol id="best-vr" viewBox="0 0 400 400">
        <path d="M86 135c-3 0-3-6-3 65 0 72-1 65 3 66a1333 1333 0 0066-2l6-3 5-3c1 0 2 0 3-2l4-2 4-2 4-2 3-2 5-3 4-2 3-2 3-2h8l3 1 4 3 4 2 4 2 3 2 5 3 2 1 5 3 3 2c3 1 4 1 5 3l7 4h65c3 0 3 5 3-65s0-64-3-65H86m65 34l4 2 6 1 2 2 4 4c1 1 2 1 2 3l1 2c3 5 3 4 3 11v7l-1 1-1 2-2 3c0 2-4 7-7 8l-2 1c-2 4-24 4-24 1l-2-2c-3-1-8-7-8-9l-1-1-2-5c-2-4-1-13 1-15l3-5 2-3 2-2c1-2 4-3 5-3l4-1c4-2 7-3 11-2m108 1l4 2 6 3 2 2 3 3 2 4 2 3v5c1 8 0 11-3 14l-1 3-7 6-2 2c-2 2-4 2-12 2s-12-1-12-2l-2-2-4-3-1-1c-2-1-3-3-3-5l-2-4c-2-4-2-13 0-15l1-3 4-6 2-2c2-2 4-4 7-4l3-1c5-2 10-2 13-1" fill="#e9e9e9"/>
        <path d="M0 200v200h400V0H0v200m257-65h57c3 1 3-5 3 65s0 65-3 65h-65l-7-4c-1-2-2-2-5-3l-3-2-5-3-2-1-5-3-3-2-4-2-4-2-4-3-3-1h-8l-3 2-3 2-4 2-5 3-3 2-4 2-4 2-4 2c-1 2-2 2-3 2l-5 3-6 3-4 2H86c-4-1-3 6-3-66 0-71 0-65 3-65h171m-113 34l-4 2-4 1c-1 0-4 1-5 3l-2 2-2 3-3 5c-2 2-3 11-1 15l2 5 1 1c0 2 5 8 8 9l2 2c0 3 22 3 24-1l2-1c3-1 7-6 7-8l2-3 1-2 1-1v-7c0-7 0-6-3-11l-1-2c0-2-1-2-2-3l-4-4-2-2-6-1c-1-2-7-3-11-2m105 1l-3 1-3 1c-3 0-5 2-7 4l-2 2-4 6-1 3c-2 2-2 11 0 15l2 4c0 2 1 4 3 5l1 1 4 3 2 2c0 3 21 3 24 0l2-2 7-6 1-3c3-3 4-6 3-14v-5l-2-3-2-4-3-3-2-2-6-3-4-2h-10" fill="#444"/>
    </symbol>
    <symbol id="best-sport" viewBox="0 0 400 400">
        <path d="M0 200v200h400V0H0v200m271-99l1 15v15l1 1 1 1h19c22 0 23 0 23 3a460 460 0 01-2 39l-1 4c-1 3-1 5-3 6l-1 3-3 4-2 1-2 3-2 1-3 3-3 2-4 2-5 2c-1 2-4 2-11 2-9 1-9 1-11 6l-2 3-3 4-2 2-2 2-6 7-2 2-3 2-3 2-4 3h-1l-1 1-2 1-5 2-6 2-8 2c-10 1-13 4-6 6l3 1h1l2 1 5 3 3 2 4 3 4 2 4 2 2 1c1 2 4 3 5 3l4 3v2l1 11c0 10 0 10-3 11h-84c-3-1-3-1-3-11 1-14 1-14 6-16l3-2 3-2 4-2 4-2 4-3 5-2 3-2 4-2c8-3 7-6-3-6l-10-3-5-2-6-2-5-3-2-2-3-2-3-2-2-1-7-7-2-3-1-2-3-3-2-4c-2-5-4-6-13-6-6 0-7 0-10-2l-4-2c-3 0-4-1-4-2l-4-2-3-2-2-2-1-2-2-2-2-3-3-4-2-6-1-3c-3-6-3-8-3-26l1-16 21-1 21-1c2-1 2-1 2-16l1-15v-1h142v1m3 49c-2 1-2 1-2 21s0 19 2 20c1 1 4 0 4-1l5-3 2-1h1l1-1 2-2 3-3 2-3 2-2 3-10 1-8c0-6 0-6-3-7h-23m-170 0c-3 1-4 2-3 6l2 11 1 5c1 3 1 4 3 5l2 3 2 2 2 3s2 2 5 2l3 2c2 2 4 3 6 1l1-1v-37l-1-1-1-1h-22" fill="#434343"/>
        <path d="M129 101l-1 15c0 15 0 15-2 16l-21 1-21 1-1 16c0 18 0 20 3 26l1 3 2 6 3 4 2 3 2 2 1 2 2 2 3 2 4 2c0 1 1 2 4 2l4 2c3 2 4 2 10 2 9 0 11 1 13 6l2 4 3 3 1 2 2 3 7 7 2 1 3 2 3 2 2 2 5 3 6 2 5 2 10 3c10 0 11 3 3 6l-4 2-3 2-5 2-4 3-4 2-4 2-3 2-3 2c-5 2-5 2-6 16 0 10 0 10 3 11h84c3-1 3-1 3-11a39 39 0 00-1-13l-4-3c-1 0-4-1-5-3l-2-1-4-2-4-2-4-3-3-2-5-3-2-1h-1l-3-1c-7-2-4-5 6-6l8-2 6-2 5-2 2-1 1-1h1l4-3 3-2 3-2 2-2 6-7 2-2 2-2 3-4 2-3c2-5 2-5 11-6 7 0 10 0 11-2l5-2 4-2 3-2 3-3 2-1 2-3 2-1 3-4 1-3c2-1 2-3 3-6l1-4 2-8v-31c0-3-1-3-23-3h-19l-1-1-1-1v-15l-1-15v-1H129v1m168 49c3 1 3 1 3 7l-1 8-3 10-2 2-2 3-3 3-2 2-1 1h-1l-2 1-5 3c-1 2-4 2-5 0l-1-39c2-2 21-3 25-1m-170 1l1 1v37l-1 1c-2 2-4 1-6-1l-3-2c-3 0-5-2-5-2l-2-3-2-2-2-3c-2-1-2-2-3-5l-1-5-2-11c-1-6 0-6 15-6h10l1 1" fill="#ebebeb"/>
    </symbol>
    <symbol id="best-gaming" viewBox="0 0 400 400">
        <path d="M0 200v200h400V0H0v200m144-84c1 2 4 3 5 3l4 3 4 2 2 1 7 3 1 1c0 1 3 3 5 3l4 3 3 2 4 2 5 3h1l1 1 1 1 5 2a347 347 0 018 1l3-1 3-2 4-3 4-2 3-2 3-1 5-3 5-3 2-2c3 0 5-1 6-3l2-1 6-3 4-2 2-2 1-1 3 1 3 1 2 1 3 2 3 2a342 342 0 0145 27l1 1v33c0 35 0 34-2 34l-2 2-3 2-6 3-1 1h-2a198 198 0 01-7 5c-1 0-4 1-5 3l-2 1-6 3-3 2-6 4-2 1-6 3-2 1-4 2-6 4-3 2-2 1-6 3-3 2-2 1-5 3-5 3-5 3c-2 0-3 1-3 2l-3 1-2 1-1 1-2 1-3 2-3 2c-2 1-6 2-7 1l-5-3-1-1-2-2-2-1-2-1-3-1-4-2-4-3-4-2-2-1-6-4-3-2-1-1h-1l-3-1-3-2c-1-2-2-2-5-3l-3-2-4-2-4-3-5-2-2-2-3-2-5-2-6-3-3-2-4-3-3-1c-1-2-4-3-5-3l-3-2-4-2-4-3-3-2-2-1v-34c0-39-1-35 6-37l3-2 4-3 4-2 3-2 6-3 3-2 3-2 5-2 4-3 5-2 3-2 2-2 6-3h4m-7 44l-2 1 1 5-2 10h-7l-7 1-2 1c-2 2-1 10 1 12h5c4 0 10 0 11 2l1 7c0 8 0 9 5 9 7 0 8 0 8-9 0-8 1-9 8-9h7l2-1 1-4v-5c0-2-3-3-9-3-7 0-8-1-9-3v-10l-1-3c-2-3-9-4-11-1m132 5l-1 1-2 1c-3 1-3 3-3 7 0 7 0 8 3 9l2 1c0 3 8 3 10 1l2-2c4-2 5-14 0-16l-3-2h-8m-29 17c-4 1-6 8-5 13l1 2c0 4 10 6 13 4l2-1h1l1-1c4-1 4-11 0-15s-8-4-13-2" fill="#434343"/>
        <path d="M140 116l-6 3-2 2-3 2-5 2-4 3-5 2-3 2-3 2-6 3-3 2-4 2-4 3-3 2c-7 2-6-2-6 37a963 963 0 002 35l3 2 4 3 4 2 3 2c1 0 4 1 5 3l3 1 4 3 3 2 6 3 5 2 3 2 2 2 5 2 4 3 4 2 3 2c3 1 4 1 5 3l3 2 3 1h1l1 1 3 2 6 4 2 1 4 2 4 3 4 2 3 1 2 1 2 1 2 2 1 1 5 3c1 1 5 0 7-1l3-2 3-2 2-1 1-1 2-1 3-1c0-1 1-2 3-2l5-3 5-3 5-3 2-1 3-2 6-3 2-1 3-2 6-4 4-2 2-1 6-3 2-1 6-4 3-2 6-3 2-1c1-2 4-3 5-3l2-2 3-2a198 198 0 0016-9c2 0 2 1 2-34v-33l-1-1c-1-2-2-3-5-4l-3-2-5-3-3-2-2-1-6-3-5-3-2-2-3-2c-3 0-5-2-6-3l-2-1h-1a342 342 0 00-13-7l-3-1-1 1-2 2-4 2-6 3-2 1c-1 2-3 3-6 3l-2 2-5 3-5 3-3 1-3 2-4 2-4 3-3 2-3 1h-4a347 347 0 00-10-4l-1-1h-1l-5-3-4-2-3-2-4-3c-2 0-5-2-5-3l-1-1-7-3-2-1-4-2-4-3c-1 0-4-1-5-3h-4m6 43c3 1 3 2 3 5v10c1 2 2 3 9 3 6 0 9 1 9 3v5l-1 4-2 1h-7c-7 0-8 1-8 9 0 9-1 9-8 9-5 0-5-1-5-9l-1-7c-1-2-7-2-11-2h-5c-2-2-3-10-1-12l2-1 7-1h7l2-10-1-5 2-1c1-2 6-2 9-1m131 6l3 2c5 2 4 14 0 16l-2 2c-2 2-10 2-10-1l-2-1c-3-1-3-2-3-9 0-4 0-6 3-7l2-1c2-2 7-3 9-1m-27 16l5 6c2 4 0 11-2 12l-1 1h-1l-2 1c-3 2-13 0-13-4l-1-2c-1-5 1-12 5-13l10-1" fill="#e9e9e9"/>
    </symbol>
    <symbol id="best-live" viewBox="0 0 400 400">
        <path d="M0 200v200h400V0H0v200m102-58l2 2 4 2 3 2 4 3 2 1-1 2c-2 2-2 5-3 9l-1 3c-2 2-4 6-4 12l-1 6a59 59 0 001 34v5c0 5 1 8 3 10l2 5 2 8c2 2 2 2 0 3l-3 3-4 2-4 3-3 1-2 1h-1l-1-1-1-1-2-4c-1-1-2-2-3-7 0-2-1-5-3-6l-1-6a40 40 0 00-3-12l-1-3v-17l1-24c2-3 3-8 3-12l2-6 3-7 2-6 2-3c1-3 2-3 6-2m202 0v1l2 3 2 6 1 2 2 4 2 7a32 32 0 002 10v1c3 3 3 41 1 48l-3 12-1 4-4 10-1 3-3 4-2 1-4-1c0-1-3-3-5-3l-7-5-1-1 1-2 1-4 2-5c2-4 3-5 3-8l2-11c3-7 3-28 0-37l-2-10-3-9-2-4-1-4v-2l8-6 4-2c0-2 4-3 6-2m-96 14l2 1 2 1 7 2c2 0 2 1 3 2l4 2 2 2a70 70 0 005 4l1 2 2 3 2 4 2 4 2 5c3 6 3 17 0 24l-1 4-3 6-2 3-5 6-6 5-3 2-4 2-6 2c-4 3-17 3-24 0l-4-1-5-3-3-2c-4-2-12-9-12-11l-2-3c-1 0-2-1-2-4-1-4-1-5-3-6l-1-2c-1-11-1-19 2-22l2-5 1-4 3-4 2-3 3-3 1-1 2-2 3-2c1 0 2 0 3-2 2-1 2-2 5-2l5-2c3-2 16-3 20-2m-75 4l2 2 4 2 7 5h1l2 3-2 4c-2 2-2 3-2 8l-1 6c-2 5-2 15 0 22l1 4 2 9 2 3c0 2 0 2-2 3l-2 2h-1l-1 1-2 1-6 4c-1 2-7 1-7-1l-1-2a145 145 0 01-3-9 25 25 0 00-2-7l-1-3c-2-2-2-32 0-34a27 27 0 003-10l1-5 1-1v-1l2-4 3-2h2m138 1l1 1 2 4 3 8 3 8v36c-2 2-3 7-3 8l-2 7-1 1v1l-2 2c-1 3-2 4-5 1l-6-3-2-1-2-2c-4-1-5-2-4-4l3-9 1-6c3-6 3-19 0-27l-1-5a55 55 0 00-2-7l-1-2c-1-1 0-3 4-4l2-2 2-1 6-3c1-2 4-2 4-1" fill="#434343"/>
        <path d="M97 142l-1 2-2 3-2 6-3 7-2 6c0 4-1 9-3 12l-1 24v17l1 3 2 5 1 7 1 6c2 1 3 4 3 6 1 5 2 6 3 7l2 4 1 1 1 1h1l2-1 3-1 4-3 4-2 3-3c2-1 2-1 0-3l-2-8-2-5c-2-2-3-5-3-10v-5l-3-18 2-16 1-6c0-6 2-10 4-12l1-3c1-4 1-7 3-9l1-2-2-1-4-3-3-2-4-2c-1-2-5-3-7-2m203 1l-2 1-4 2-8 6v2l1 4 2 4 3 9 2 10c3 9 3 30 0 37l-2 11c0 3-1 4-3 8l-2 5-1 4-1 2 1 1 7 5c2 0 5 2 5 3l4 1 2-1 3-4 1-3 4-10 1-4 3-12a147 147 0 00-5-66l-2-4-1-2-2-6-2-3c0-1-2-2-4 0m-109 13l-3 2-5 2c-3 0-3 1-5 2-1 2-2 2-3 2l-3 2-2 2-1 1-3 3-2 3-3 4-1 4-2 5c-3 3-3 11-2 22l1 2c2 1 2 2 3 6 0 3 1 4 2 4l2 3c0 2 8 9 12 11l3 2 5 3 4 1c7 3 20 3 24 0l6-2 4-2 3-2 6-5 5-6 2-3 3-6 1-4c3-7 3-18 0-24l-2-5-2-4-2-4-2-3-1-2-2-1-3-3-2-2-4-2c-1-1-1-2-3-2l-7-2-2-1-2-1h-17m-62 5l-1 1-2 4v1l-1 1-1 5-1 4-2 6c-2 2-2 32 0 34l1 3 1 2 1 5 1 4 1 2a145 145 0 002 5c0 2 6 3 7 1l6-4 2-1 1-1h1l2-2c2-1 2-1 2-3l-2-3-2-9-1-4c-2-7-2-17 0-22l1-6c0-5 0-6 2-8l2-4-2-3h-1l-7-5-4-2-2-2h-2l-2 1m139 0l-1 1-6 3-2 1-2 2c-4 1-5 3-4 4l1 2a125 125 0 002 7l1 5c3 8 3 21 0 27l-1 6-3 9c-1 2 0 3 4 4l2 2 2 1 6 3c3 3 4 2 5-1l2-2v-1l1-1 2-7c0-1 1-6 3-8v-36l-3-8-3-8-2-4c0-2-2-2-4-1" fill="#e7e7e7"/>
    </symbol>
    <symbol id="y-music" viewBox="0 0 24 24">
        <path d="M12 .5a11.5 11.5 0 100 23 11.5 11.5 0 000-23zm0 18.3a6.8 6.8 0 110-13.6 6.8 6.8 0 010 13.6z"/>
        <path d="M12 6a6 6 0 100 12 6 6 0 000-12zm-2.3 9.4V8.6l6 3.4-6 3.4z"/>
    </symbol>
    <symbol id="search" viewBox="0 0 24 24">
        <path d="M15.5 14h-.8l-.3-.3c1-1.1 1.6-2.6 1.6-4.2a6.5 6.5 0 10-2.3 5l.3.2v.8l5 5 1.5-1.5-5-5zm-6 0a4.5 4.5 0 110-9 4.5 4.5 0 010 9z"/>
    </symbol>
    <symbol id="create" viewBox="0 0 24 24">
        <path d="M17 10.5V7c0-.6-.5-1-1-1H4a1 1 0 00-1 1v10c0 .6.5 1 1 1h12c.6 0 1-.5 1-1v-3.5l4 4v-11l-4 4zM14 13h-3v3H9v-3H6v-2h3V8h2v3h3v2z"/>
    </symbol>
    <symbol id="y-apps" viewBox="0 0 24 24">
        <path d="M4 8h4V4H4v4zm6 12h4v-4h-4v4zm-6 0h4v-4H4v4zm0-6h4v-4H4v4zm6 0h4v-4h-4v4zm6-10v4h4V4h-4zm-6 4h4V4h-4v4zm6 6h4v-4h-4v4zm0 6h4v-4h-4v4z"/>
    </symbol>
    <symbol id="notifications" viewBox="0 0 24 24">
        <path d="M12 22a2 2 0 002-2h-4c0 1.1.9 2 2 2zm6-6v-5c0-3-1.6-5.6-4.5-6.3V4a1.5 1.5 0 10-3 0v.7C7.6 5.4 6 7.9 6 11v5l-2 2v1h16v-1l-2-2z"/>
    </symbol>
</svg>
